<svg xmlns="http://www.w3.org/2000/svg" width="41" height="48" viewBox="0 0 41 48">
  <path fill="#50B7D0" fill-rule="evenodd" d="M2.84221748,0 L36.664487,4.21315404e-16 C38.2342003,4.32091369e-15 39.5067045,1.27426648 39.5067045,2.84615385 L39.5067045,36.4504473 C39.5067045,37.5589626 38.8639835,38.5666238 37.8596242,39.0327486 L21.7452477,46.5114557 C20.4818621,47.0977949 19.0248424,47.0977949 17.7614568,46.5114557 L1.64708023,39.0327486 C0.642720916,38.5666238 -7.52612215e-16,37.5589626 -8.8817842e-16,36.4504473 L3.74019697e-16,2.84615385 C1.81785252e-16,1.27426648 1.27250411,7.10066429e-16 2.84221748,0 Z M19.3905551,9.48717949 L15.4479257,16.5637396 L6.6318408,17.6988259 L13.0111979,23.2068269 L11.5052964,30.9850005 L19.3905551,27.31286 L27.2753401,30.9850005 L25.7694385,23.2068269 L32.1487957,17.6988259 L23.3327107,16.5637396 L19.3905551,9.48717949 Z" transform="translate(.925 .282)"/>
</svg>
