<svg xmlns="http://www.w3.org/2000/svg" width="111" height="17" viewBox="0 0 111 17">
  <g fill="#E7AC04">
    <polygon points="9.976 .104 13.058 5.617 19.951 6.502 14.963 10.793 16.14 16.853 9.976 13.992 3.81 16.853 4.988 10.793 0 6.502 6.893 5.617"/>
    <polygon points="9.976 .104 13.058 5.617 19.951 6.502 14.963 10.793 16.14 16.853 9.976 13.992 3.81 16.853 4.988 10.793 0 6.502 6.893 5.617" transform="translate(23)"/>
    <polygon points="9.976 .104 13.058 5.617 19.951 6.502 14.963 10.793 16.14 16.853 9.976 13.992 3.81 16.853 4.988 10.793 0 6.502 6.893 5.617" transform="translate(46)"/>
    <polygon points="9.976 .104 13.058 5.617 19.951 6.502 14.963 10.793 16.14 16.853 9.976 13.992 3.81 16.853 4.988 10.793 0 6.502 6.893 5.617" transform="translate(68)"/>
    <polygon points="9.976 .104 13.058 5.617 19.951 6.502 14.963 10.793 16.14 16.853 9.976 13.992 3.81 16.853 4.988 10.793 0 6.502 6.893 5.617" transform="translate(91)"/>
  </g>
</svg>
